<?xml version="1.0" encoding="utf-8"?>
<svg xmlns="http://www.w3.org/2000/svg" width="512" height="512" viewBox="0 0 512 512">
  <g fill="none" fill-rule="evenodd">
    <circle cx="256" cy="256" r="256" fill="#63CDFF"/>
    <g fill="#FFFFFF" fill-rule="nonzero" transform="translate(109 123)">
      <path d="M65.5904762,265.971053 C48.3333333,265.971053 31.7952381,259.505263 19.5714286,247.292105 C-5.5952381,222.147368 -5.5952381,181.197368 19.5714286,156.052632 L74.9380952,100.734211 C100.104762,75.5894737 141.090476,75.5894737 166.257143,100.734211 C177.042857,111.510526 183.514286,125.878947 184.952381,141.684211 C185.671429,147.431579 180.638095,152.460526 174.885714,153.178947 C169.133333,153.897368 164.1,148.868421 163.380952,143.121053 C162.661905,133.063158 158.347619,123.005263 151.157143,115.821053 C134.619048,99.2973684 107.295238,99.2973684 90.0380952,115.821053 L34.6714286,171.139474 C18.1333333,187.663158 18.1333333,214.963158 34.6714286,232.205263 C51.2095238,248.728947 78.5333333,248.728947 95.7904762,232.205263 L136.77619,191.255263 C141.090476,186.944737 147.561905,186.944737 151.87619,191.255263 C156.190476,195.565789 156.190476,202.031579 151.87619,206.342105 L110.890476,247.292105 C99.3857143,259.505263 82.847619,265.971053 65.5904762,265.971053 Z"/>
      <path d="M174.166667,184.071053 C156.909524,184.071053 140.371429,177.605263 128.147619,165.392105 C117.361905,154.615789 110.890476,140.247368 109.452381,124.442105 C108.733333,118.694737 113.766667,113.665789 119.519048,112.947368 C125.271429,112.228947 130.304762,117.257895 131.02381,123.005263 C131.742857,133.063158 136.057143,143.121053 143.247619,150.305263 C151.157143,158.207895 161.942857,162.518421 173.447619,162.518421 C184.952381,162.518421 195.738095,158.207895 203.647619,150.305263 L259.014286,94.9868421 C275.552381,78.4631579 275.552381,51.1631579 259.014286,33.9210526 C242.47619,17.3973684 215.152381,17.3973684 197.895238,33.9210526 L156.909524,74.8710526 C152.595238,79.1815789 146.12381,79.1815789 141.809524,74.8710526 C137.495238,70.5605263 137.495238,64.0947368 141.809524,59.7842105 L182.795238,18.8342105 C195.019048,6.62105263 211.557143,0.155263158 228.814286,0.155263158 C246.071429,0.155263158 262.609524,6.62105263 274.833333,18.8342105 C287.057143,31.0473684 293.528571,47.5710526 293.528571,64.8131579 C293.528571,82.0552632 287.057143,98.5789474 274.833333,110.792105 L219.466667,166.110526 C207.961905,177.605263 191.42381,184.071053 174.166667,184.071053 Z"/>
    </g>
  </g>
</svg>
