<!-- Generator: Adobe Illustrator 24.2.1, SVG Export Plug-In  -->
<svg version="1.1" xmlns="http://www.w3.org/2000/svg" xmlns:xlink="http://www.w3.org/1999/xlink" x="0px" y="0px" width="544.2px"
     height="544.2px" viewBox="0 0 544.2 544.2" style="overflow:visible;enable-background:new 0 0 544.2 544.2;"
     xml:space="preserve">
<defs>
</defs>
<g>
    <path style="fill:#3A51BF;" d="M272.1,0C2.1,0,0,121.8,0,272.1s2.1,272.1,272.1,272.1s272.1-121.8,272.1-272.1S542.1,0,272.1,0z"/>
    <g>
        <path style="fill:#FFFFFF;" d="M347.3,125.9c4.6,1.1,9.2,2.1,13.7,3.4c55.3,16.3,75.8,85.3,37.5,128.4
            c-17.9,20.1-37.2,39.3-57.2,57.2c-35.7,31.9-93.8,23-118.9-17.8c7.6-7.2,15-15.1,23.3-21.9c5.9-4.8,13.7-3.1,18.9,2.4
            c12.6,13.5,34.3,15,47.8,2.2c17.5-16.6,34.6-33.7,51.2-51.2c12.8-13.5,11.6-34.5-1.6-47.3c-13.1-12.6-33.4-13-47-0.5
            c-6.3,5.8-12.1,12.1-18.3,18c-1.2,1.1-3.8,1.8-5.2,1.3c-16.8-6.8-34.2-8.6-52-6.2c-0.3,0-0.6-0.3-2.5-1.2c2.5-2,4.7-3.4,6.6-5.2
            c11.7-11.6,23.6-23.2,35.1-35.1c13.4-13.8,29.2-22.9,48.4-25.5c0.7-0.1,1.4-0.5,2.1-0.8C335.2,125.9,341.3,125.9,347.3,125.9z"/>
        <path style="fill:#FFFFFF;" d="M126,329c0.9-3.9,1.6-7.8,2.7-11.6c3.4-12.5,9.1-23.9,18.2-33.1c17.8-18.2,35.5-36.6,54.2-53.9
            c35.1-32.4,91.5-25.8,118.7,13.3c0.5,0.8,1,1.6,2,3.2c-7.6,7.2-14.8,15-23,21.7c-6.1,5-14.1,3.5-19.3-2.2
            c-12.3-13.2-34.2-14.9-47.3-2.4c-17.8,16.8-35.2,34.2-52,52c-12.4,13.1-11,33.9,1.7,46.5c12.9,12.8,33.4,13.4,47,1.1
            c6.3-5.7,12.1-12.1,18.3-17.9c1.3-1.2,4.1-2.2,5.6-1.6c17,6.9,34.5,8.5,53.6,6c-1.4,1.7-2.1,2.9-3,3.8
            c-13.6,13.6-26.9,27.4-40.8,40.7c-23.1,22.1-50.5,29.4-80.9,19.6c-30.6-9.9-48.7-31.7-54.6-63.5c-0.2-1.1-0.7-2.2-1-3.2
            C126,341.2,126,335.1,126,329z"/>
    </g>
</g>
</svg>
